# Blender v2.83.3 OBJ File: 'molot.blend'
# www.blender.org
mtllib molot2.mtl
o Cube
v 1.000000 1.999484 -1.000000
v 1.000000 1.999484 1.000000
v -1.000000 1.999484 -1.000000
v -1.000000 1.999484 1.000000
v 1.360607 1.999484 -1.360607
v 1.360607 1.999484 1.360607
v -1.360607 1.999484 -1.360607
v -1.360607 1.999484 1.360607
v 1.360607 2.957680 -1.360607
v 1.360607 2.957680 1.360607
v -1.360607 2.957680 -1.360607
v -1.360607 2.957680 1.360607
v 0.890931 0.229701 -0.890931
v -0.890931 0.229701 0.890931
v 0.890931 0.229701 0.890931
v -0.890931 0.229701 -0.890931
v 1.096003 0.138142 -1.096003
v -1.096003 0.138142 1.096003
v 1.096003 0.138142 1.096003
v -1.096003 0.138142 -1.096003
v 1.000000 -1.999484 -1.000000
v 1.000000 -1.999484 1.000000
v -1.000000 -1.999484 -1.000000
v -1.000000 -1.999484 1.000000
v 1.360607 -1.999484 -1.360607
v 1.360607 -1.999484 1.360607
v -1.360607 -1.999484 -1.360607
v -1.360607 -1.999484 1.360607
v 1.360607 -2.957680 -1.360607
v 1.360607 -2.957680 1.360607
v -1.360607 -2.957680 -1.360607
v -1.360607 -2.957680 1.360607
v 0.890931 -0.229701 -0.890931
v -0.890931 -0.229701 0.890931
v 0.890931 -0.229701 0.890931
v -0.890931 -0.229701 -0.890931
v 1.142028 0.000000 -1.142028
v 1.142028 0.000000 1.142028
v -1.142028 0.000000 -1.142028
v -1.142028 0.000000 1.142028
v 1.096003 -0.138142 -1.096003
v -1.096003 -0.138142 1.096003
v 1.096003 -0.138142 1.096003
v -1.096003 -0.138142 -1.096003
vt 0.077442 0.757268
vt 0.321806 0.710459
vt 0.245310 0.920254
vt 0.179731 0.918519
vt 0.132497 0.107525
vt 0.185910 0.100429
vt 0.282387 0.256363
vt 0.054413 0.293687
vt 0.045833 0.521970
vt 0.318444 0.479760
vt 0.360951 0.481287
vt 0.356313 0.720604
vt 0.198499 0.045254
vt 0.323327 0.245952
vt 0.260117 0.955751
vt 0.077442 0.757268
vt 0.179731 0.918519
vt 0.245310 0.920254
vt 0.321806 0.710459
vt 0.132497 0.107525
vt 0.054413 0.293687
vt 0.282387 0.256363
vt 0.185910 0.100429
vt 0.045833 0.521970
vt 0.318444 0.479760
vt 0.356313 0.720604
vt 0.360951 0.481287
vt 0.323327 0.245952
vt 0.198499 0.045254
vt 0.260117 0.955751
vt 0.401280 0.211776
vt 0.458782 0.464296
vt 0.677369 0.000097
vt 0.677369 0.382663
vt 0.458976 0.382663
vt 0.458976 0.000097
vt 0.458782 0.730886
vt 0.370994 0.999903
vt 0.273036 0.000097
vt 0.049224 0.765045
vt 0.017285 0.520666
vt 0.171284 0.953309
vt 0.031155 0.286284
vt 0.123257 0.086124
vt 0.016340 0.282622
vt 0.000097 0.521165
vt 0.032975 0.770432
vt 0.112003 0.075859
vt 0.159820 0.967300
vt 0.458782 0.464296
vt 0.401280 0.211776
vt 0.677369 0.000097
vt 0.458976 0.000097
vt 0.458976 0.382663
vt 0.677369 0.382663
vt 0.370994 0.999903
vt 0.458782 0.730886
vt 0.273036 0.000097
vt 0.017285 0.520666
vt 0.049224 0.765045
vt 0.171284 0.953309
vt 0.031155 0.286284
vt 0.123257 0.086124
vn 0.0000 -0.0615 0.9981
vn -0.9981 -0.0615 0.0000
vn 0.9981 -0.0615 0.0000
vn 0.0000 -0.0615 -0.9981
vn 0.0000 -1.0000 0.0000
vn 0.0000 0.0615 0.9981
vn -0.9981 0.0615 0.0000
vn 0.9981 0.0615 0.0000
vn 0.0000 0.0615 -0.9981
vn 0.0000 1.0000 0.0000
vn 0.0000 0.0000 -1.0000
vn 0.0000 0.0000 1.0000
vn -1.0000 0.0000 0.0000
vn 1.0000 0.0000 0.0000
vn 0.4077 0.9131 0.0000
vn 0.0000 0.9131 0.4077
vn 0.0000 0.9131 -0.4077
vn -0.4077 0.9131 0.0000
vn 0.0000 0.3161 -0.9487
vn 0.9487 0.3161 0.0000
vn -0.9487 0.3161 0.0000
vn 0.0000 0.3161 0.9487
vn 0.4077 -0.9131 0.0000
vn 0.0000 -0.9131 0.4077
vn 0.0000 -0.9131 -0.4077
vn -0.4077 -0.9131 0.0000
vn 0.0000 -0.3161 -0.9487
vn 0.9487 -0.3161 0.0000
vn -0.9487 -0.3161 0.0000
vn 0.0000 -0.3161 0.9487
usemtl Материал.001
s off
f 15/1/1 2/2/1 4/3/1 14/4/1
f 14/5/2 4/6/2 3/7/2 16/8/2
f 13/9/3 1/10/3 2/2/3 15/1/3
f 16/8/4 3/7/4 1/10/4 13/9/4
f 2/2/5 1/10/5 5/11/5 6/12/5
f 3/7/5 4/6/5 8/13/5 7/14/5
f 4/3/5 2/2/5 6/12/5 8/15/5
f 1/10/5 3/7/5 7/14/5 5/11/5
f 35/16/6 34/17/6 24/18/6 22/19/6
f 34/20/7 36/21/7 23/22/7 24/23/7
f 33/24/8 35/16/8 22/19/8 21/25/8
f 36/21/9 33/24/9 21/25/9 23/22/9
f 22/19/10 26/26/10 25/27/10 21/25/10
f 23/22/10 27/28/10 28/29/10 24/23/10
f 24/18/10 28/30/10 26/26/10 22/19/10
f 21/25/10 25/27/10 27/28/10 23/22/10
usemtl Материал.002
f 5/11/11 7/14/11 11/31/11 9/32/11
f 9/33/10 11/34/10 12/35/10 10/36/10
f 8/15/12 6/12/12 10/37/12 12/38/12
f 7/14/13 8/13/13 12/39/13 11/31/13
f 6/12/14 5/11/14 9/32/14 10/37/14
f 13/9/15 15/1/15 19/40/15 17/41/15
f 15/1/16 14/4/16 18/42/16 19/40/16
f 16/8/17 13/9/17 17/41/17 20/43/17
f 14/5/18 16/8/18 20/43/18 18/44/18
f 39/45/19 20/43/19 17/41/19 37/46/19
f 37/46/20 17/41/20 19/40/20 38/47/20
f 40/48/21 18/44/21 20/43/21 39/45/21
f 38/47/22 19/40/22 18/42/22 40/49/22
f 25/27/11 29/50/11 31/51/11 27/28/11
f 29/52/5 30/53/5 32/54/5 31/55/5
f 28/30/12 32/56/12 30/57/12 26/26/12
f 27/28/13 31/51/13 32/58/13 28/29/13
f 26/26/14 30/57/14 29/50/14 25/27/14
f 33/24/23 41/59/23 43/60/23 35/16/23
f 35/16/24 43/60/24 42/61/24 34/17/24
f 36/21/25 44/62/25 41/59/25 33/24/25
f 34/20/26 42/63/26 44/62/26 36/21/26
f 39/45/27 37/46/27 41/59/27 44/62/27
f 37/46/28 38/47/28 43/60/28 41/59/28
f 40/48/29 39/45/29 44/62/29 42/63/29
f 38/47/30 40/49/30 42/61/30 43/60/30
