# Blender v2.83.3 OBJ File: 'pila.blend'
# www.blender.org
mtllib pila.mtl
o Окружность_Окружность.003
v 0.000000 0.000000 -1.000000
v -0.000000 0.382683 -0.923880
v -0.000000 0.707107 -0.707107
v -0.000000 0.923880 -0.382683
v -0.000000 1.000000 0.000000
v -0.000000 0.923880 0.382684
v -0.000000 0.707107 0.707107
v -0.000000 0.382683 0.923880
v -0.000000 0.000000 1.000000
v 0.000000 -0.382683 0.923880
v 0.000000 -0.707107 0.707107
v 0.000000 -0.923880 0.382684
v 0.000000 -1.000000 -0.000000
v 0.000000 -0.923879 -0.382684
v 0.000000 -0.707107 -0.707107
v 0.000000 -0.382683 -0.923880
v 0.310845 0.000000 -1.000000
v 0.310845 0.382683 -0.923880
v 0.310845 0.707107 -0.707107
v 0.310845 0.923880 -0.382683
v 0.310845 1.000000 0.000000
v 0.310845 0.923880 0.382684
v 0.310845 0.707107 0.707107
v 0.310845 0.382684 0.923880
v 0.310845 0.000000 1.000000
v 0.310845 -0.382683 0.923880
v 0.310845 -0.707107 0.707107
v 0.310845 -0.923880 0.382684
v 0.310845 -1.000000 -0.000000
v 0.310845 -0.923879 -0.382684
v 0.310845 -0.707107 -0.707107
v 0.310845 -0.382683 -0.923880
v -0.000000 0.137920 -0.332969
v -0.000000 0.000000 -0.360403
v -0.000000 0.254843 -0.254843
v -0.000000 0.332969 -0.137920
v -0.000000 0.360403 0.000000
v -0.000000 0.332969 0.137920
v -0.000000 0.254843 0.254843
v -0.000000 0.137920 0.332969
v -0.000000 0.000000 0.360403
v 0.000000 -0.137920 0.332969
v 0.000000 -0.254843 0.254843
v 0.000000 -0.332969 0.137920
v 0.000000 -0.360403 -0.000000
v 0.000000 -0.332969 -0.137920
v 0.000000 -0.254843 -0.254843
v 0.000000 -0.137920 -0.332969
v 0.310845 0.000000 -0.360403
v 0.310845 0.137920 -0.332969
v 0.310845 0.254843 -0.254843
v 0.310845 0.332969 -0.137920
v 0.310845 0.360403 0.000000
v 0.310845 0.332969 0.137920
v 0.310845 0.254843 0.254843
v 0.310845 0.137920 0.332969
v 0.310845 0.000000 0.360403
v 0.310845 -0.137920 0.332969
v 0.310845 -0.254843 0.254843
v 0.310845 -0.332969 0.137920
v 0.310845 -0.360403 -0.000000
v 0.310845 -0.332969 -0.137920
v 0.310845 -0.254843 -0.254843
v 0.310845 -0.137920 -0.332969
v -0.097947 0.128655 -0.310600
v -0.097947 0.000000 -0.336191
v -0.097947 0.237723 -0.237723
v -0.097947 0.310600 -0.128655
v -0.097947 0.336191 0.000000
v -0.097947 0.310600 0.128655
v -0.097947 0.237723 0.237723
v -0.097947 0.128655 0.310600
v -0.097947 0.000000 0.336191
v -0.097947 -0.128655 0.310600
v -0.097947 -0.237723 0.237723
v -0.097947 -0.310600 0.128655
v -0.097947 -0.336191 0.000000
v -0.097947 -0.310600 -0.128655
v -0.097947 -0.237723 -0.237723
v -0.097947 -0.128654 -0.310600
v 0.408792 0.000000 -0.336191
v 0.408792 0.128655 -0.310600
v 0.408792 0.237723 -0.237723
v 0.408792 0.310600 -0.128655
v 0.408792 0.336191 0.000000
v 0.408792 0.310600 0.128655
v 0.408792 0.237723 0.237723
v 0.408792 0.128655 0.310600
v 0.408792 0.000000 0.336191
v 0.408792 -0.128655 0.310600
v 0.408792 -0.237723 0.237723
v 0.408792 -0.310600 0.128655
v 0.408792 -0.336191 0.000000
v 0.408792 -0.310600 -0.128655
v 0.408792 -0.237723 -0.237723
v 0.408792 -0.128654 -0.310600
v 0.147058 0.734749 -1.080732
v 0.147058 0.717290 -1.092398
v 0.147058 1.283739 -0.244647
v 0.147058 1.279643 -0.265241
v 0.147058 1.080732 0.734749
v 0.147058 1.092398 0.717290
v 0.147058 0.244647 1.283739
v 0.147058 0.265241 1.279643
v 0.147059 -0.734749 1.080733
v 0.147059 -0.717290 1.092398
v 0.147059 -1.283739 0.244647
v 0.147059 -1.279643 0.265241
v 0.147059 -1.080732 -0.734749
v 0.147059 -1.092398 -0.717291
v 0.147058 -0.244647 -1.283740
v 0.147058 -0.265241 -1.279643
v 0.163786 0.734749 -1.080732
v 0.163786 0.717290 -1.092398
v 0.163786 1.283739 -0.244647
v 0.163786 1.279643 -0.265241
v 0.163786 1.080732 0.734749
v 0.163786 1.092398 0.717290
v 0.163787 0.244647 1.283739
v 0.163787 0.265241 1.279643
v 0.163787 -0.734749 1.080733
v 0.163787 -0.717290 1.092398
v 0.163787 -1.283739 0.244647
v 0.163787 -1.279643 0.265241
v 0.163787 -1.080732 -0.734749
v 0.163787 -1.092398 -0.717291
v 0.163787 -0.244647 -1.283740
v 0.163787 -0.265241 -1.279643
vt 0.000000 0.000000
vt 0.000000 0.000000
vt 0.000000 0.000000
vt 0.000000 0.000000
vt 0.000000 0.000000
vt 0.000000 0.000000
vt 0.000000 0.000000
vt 0.000000 0.000000
vt 0.000000 0.000000
vt 0.000000 0.000000
vt 0.000000 0.000000
vt 0.000000 0.000000
vt 0.000000 0.000000
vt 0.000000 0.000000
vt 0.000000 0.000000
vt 0.000000 0.000000
vt 0.000000 0.000000
vt 0.000000 0.000000
vt 0.000000 0.000000
vt 0.000000 0.000000
vt 0.000000 0.000000
vt 0.000000 0.000000
vt 0.000000 0.000000
vt 0.000000 0.000000
vt 0.000000 0.000000
vt 0.000000 0.000000
vt 0.000000 0.000000
vt 0.000000 0.000000
vt 0.000000 0.000000
vt 0.000000 0.000000
vt 0.000000 0.000000
vt 0.000000 0.000000
vt 0.000000 0.000000
vt 0.000000 0.000000
vt 0.000000 0.000000
vt 0.000000 0.000000
vt 0.000000 0.000000
vt 0.000000 0.000000
vt 0.000000 0.000000
vt 0.000000 0.000000
vt 0.000000 0.000000
vt 0.000000 0.000000
vt 0.000000 0.000000
vt 0.000000 0.000000
vt 0.000000 0.000000
vt 0.000000 0.000000
vt 0.000000 0.000000
vt 0.000000 0.000000
vt 0.000000 0.000000
vt 0.000000 0.000000
vt 0.000000 0.000000
vt 0.000000 0.000000
vt 0.000000 0.000000
vt 0.000000 0.000000
vt 0.000000 0.000000
vt 0.000000 0.000000
vt 0.000000 0.000000
vt 0.000000 0.000000
vt 0.000000 0.000000
vt 0.000000 0.000000
vt 0.000000 0.000000
vt 0.000000 0.000000
vt 0.000000 0.000000
vt 0.000000 0.000000
vt 0.000000 0.000000
vt 0.000000 0.000000
vt 0.000000 0.000000
vt 0.000000 0.000000
vt 0.000000 0.000000
vt 0.000000 0.000000
vt 0.000000 0.000000
vt 0.000000 0.000000
vt 0.000000 0.000000
vt 0.000000 0.000000
vt 0.000000 0.000000
vt 0.000000 0.000000
vt 0.000000 0.000000
vt 0.000000 0.000000
vt 0.000000 0.000000
vt 0.000000 0.000000
vt 0.000000 0.000000
vt 0.000000 0.000000
vt 0.000000 0.000000
vt 0.000000 0.000000
vt 0.000000 0.000000
vt 0.000000 0.000000
vt 0.000000 0.000000
vt 0.000000 0.000000
vt 0.000000 0.000000
vt 0.000000 0.000000
vt 0.000000 0.000000
vt 0.000000 0.000000
vt 0.000000 0.000000
vt 0.000000 0.000000
vt 0.000000 0.000000
vt 0.000000 0.000000
vt 0.000000 0.000000
vt 0.000000 0.000000
vt 0.000000 0.000000
vt 0.000000 0.000000
vt 0.000000 0.000000
vt 0.000000 0.000000
vt 0.000000 0.000000
vt 0.000000 0.000000
vt 0.000000 0.000000
vt 0.000000 0.000000
vt 0.000000 0.000000
vt 0.000000 0.000000
vt 0.000000 0.000000
vt 0.000000 0.000000
vt 0.000000 0.000000
vt 0.000000 0.000000
vt 0.000000 0.000000
vt 0.000000 0.000000
vt 0.000000 0.000000
vt 0.000000 0.000000
vt 0.000000 0.000000
vt 0.000000 0.000000
vt 0.000000 0.000000
vt 0.000000 0.000000
vt 0.000000 0.000000
vt 0.000000 0.000000
vt 0.000000 0.000000
vt 0.000000 0.000000
vt 0.000000 0.000000
vt 0.000000 0.000000
vt 0.000000 0.000000
vt 0.000000 0.000000
vn 0.0000 -0.5556 -0.8315
vn -0.0000 0.7574 -0.6530
vn 0.0000 0.1951 -0.9808
vn -0.9116 -0.2284 0.3419
vn -0.0000 -0.1951 0.9808
vn 0.0000 -0.7574 0.6530
vn 0.9116 0.3419 0.2284
vn 0.0000 0.8315 -0.5556
vn 0.0000 -0.8315 0.5556
vn 0.0000 0.9496 0.3135
vn -0.9116 0.0802 0.4033
vn 0.0000 0.9808 0.1951
vn 0.0000 -0.9808 -0.1951
vn 0.0000 -0.0738 0.9973
vn 0.0000 -0.9496 -0.3135
vn 0.0000 0.5556 0.8315
vn 1.0000 0.0000 0.0000
vn -1.0000 -0.0000 -0.0000
vn 0.2356 -0.9532 0.1896
vn -0.2356 -0.5399 -0.8081
vn -0.2356 0.5399 -0.8081
vn 0.2356 -0.9532 -0.1896
vn -0.2356 -0.1896 -0.9532
vn -0.2356 0.8081 -0.5399
vn 0.2356 -0.8081 -0.5399
vn 0.2356 0.1896 -0.9532
vn -0.2356 0.9532 -0.1896
vn 0.2356 -0.5399 -0.8081
vn 0.2356 0.5399 -0.8081
vn -0.2356 0.9532 0.1896
vn 0.2356 -0.1896 -0.9532
vn 0.2356 0.8081 -0.5399
vn -0.2356 0.8081 0.5399
vn 0.2356 0.9532 -0.1896
vn 0.0000 0.8315 0.5556
vn -0.0000 -0.8315 -0.5556
vn -0.0000 0.9808 -0.1951
vn -0.0000 -0.9808 0.1951
vn 0.0000 0.5556 -0.8315
vn 0.0000 -0.5556 0.8315
vn 0.0000 0.1951 0.9808
vn 0.0000 -0.1951 -0.9808
vn -0.2356 0.1896 -0.9532
vn -0.2356 -0.8081 -0.5399
vn 0.2356 -0.8081 0.5399
vn -0.2356 -0.9532 -0.1896
vn 0.2356 -0.5399 0.8081
vn -0.2356 -0.9532 0.1896
vn 0.2356 -0.1896 0.9532
vn -0.2356 -0.8081 0.5399
vn 0.2356 0.1896 0.9532
vn -0.2356 -0.5399 0.8081
vn 0.2356 0.5399 0.8081
vn -0.2356 -0.1896 0.9532
vn 0.2356 0.8081 0.5399
vn -0.2356 0.1896 0.9532
vn 0.2356 0.9532 0.1896
vn -0.2356 0.5399 0.8081
vn 0.9116 0.0802 0.4033
vn 0.0000 -0.4498 -0.8931
vn -0.9116 -0.4033 0.0802
vn 0.0000 0.4498 0.8931
vn 0.9116 -0.2284 0.3419
vn 0.0000 0.9973 0.0738
vn -0.9116 -0.3419 -0.2284
vn 0.0000 -0.9973 -0.0738
vn 0.9116 -0.4033 0.0802
vn 0.0000 0.3135 -0.9496
vn -0.9116 0.2284 -0.3419
vn -0.9116 -0.0802 -0.4033
vn 0.0000 -0.3135 0.9496
vn 0.9116 -0.3419 -0.2284
vn 0.0000 0.6530 0.7574
vn -0.9116 0.4033 -0.0802
vn 0.9116 0.2284 -0.3419
vn 0.0000 -0.6530 -0.7574
vn 0.9116 -0.0802 -0.4033
vn 0.0000 0.8931 -0.4498
vn -0.9116 0.3419 0.2284
vn 0.0000 0.0738 -0.9973
vn 0.9116 0.4033 -0.0802
vn 0.0000 -0.8931 0.4498
usemtl Материал
s off
f 16/1/1 32/2/1 31/3/1 15/4/1
f 1/5/2 17/6/2 127/7/2 111/8/2
f 2/9/3 18/10/3 17/6/3 1/5/3
f 10/11/4 11/12/4 105/13/4 106/14/4
f 10/11/5 26/15/5 25/16/5 9/17/5
f 9/17/6 25/16/6 119/18/6 103/19/6
f 23/20/7 22/21/7 118/22/7 117/23/7
f 4/24/8 20/25/8 19/26/8 3/27/8
f 12/28/9 28/29/9 27/30/9 11/12/9
f 24/31/10 8/32/10 104/33/10 120/34/10
f 8/32/11 9/17/11 103/19/11 104/33/11
f 6/35/12 22/21/12 21/36/12 5/37/12
f 14/38/13 30/39/13 29/40/13 13/41/13
f 7/42/14 23/20/14 117/23/14 101/43/14
f 32/2/15 16/1/15 112/44/15 128/45/15
f 8/32/16 24/31/16 23/20/16 7/42/16
f 28/29/17 29/40/17 61/46/17 60/47/17
f 2/9/18 1/5/18 34/48/18 33/49/18
f 15/4/18 14/38/18 46/50/18 47/51/18
f 27/30/17 28/29/17 60/47/17 59/52/17
f 14/38/18 13/41/18 45/53/18 46/50/18
f 26/15/17 27/30/17 59/52/17 58/54/17
f 13/41/18 12/28/18 44/55/18 45/53/18
f 25/16/17 26/15/17 58/54/17 57/56/17
f 12/28/18 11/12/18 43/57/18 44/55/18
f 24/31/17 25/16/17 57/56/17 56/58/17
f 11/12/18 10/11/18 42/59/18 43/57/18
f 23/20/17 24/31/17 56/58/17 55/60/17
f 10/11/18 9/17/18 41/61/18 42/59/18
f 22/21/17 23/20/17 55/60/17 54/62/17
f 9/17/18 8/32/18 40/63/18 41/61/18
f 21/36/17 22/21/17 54/62/17 53/64/17
f 60/47/19 61/46/19 93/65/19 92/66/19
f 48/67/20 47/51/20 79/68/20 80/69/20
f 35/70/21 33/49/21 65/71/21 67/72/21
f 61/46/22 62/73/22 94/74/22 93/65/22
f 34/48/23 48/67/23 80/69/23 66/75/23
f 36/76/24 35/70/24 67/72/24 68/77/24
f 62/73/25 63/78/25 95/79/25 94/74/25
f 49/80/26 50/81/26 82/82/26 81/83/26
f 37/84/27 36/76/27 68/77/27 69/85/27
f 63/78/28 64/86/28 96/87/28 95/79/28
f 50/81/29 51/88/29 83/89/29 82/82/29
f 38/90/30 37/84/30 69/85/30 70/91/30
f 64/86/31 49/80/31 81/83/31 96/87/31
f 51/88/32 52/92/32 84/93/32 83/89/32
f 39/94/33 38/90/33 70/91/33 71/95/33
f 52/92/34 53/64/34 85/96/34 84/93/34
f 16/1/18 15/4/18 47/51/18 48/67/18
f 3/27/18 2/9/18 33/49/18 35/70/18
f 29/40/17 30/39/17 62/73/17 61/46/17
f 1/5/18 16/1/18 48/67/18 34/48/18
f 4/24/18 3/27/18 35/70/18 36/76/18
f 30/39/17 31/3/17 63/78/17 62/73/17
f 17/6/17 18/10/17 50/81/17 49/80/17
f 5/37/18 4/24/18 36/76/18 37/84/18
f 31/3/17 32/2/17 64/86/17 63/78/17
f 18/10/17 19/26/17 51/88/17 50/81/17
f 6/35/18 5/37/18 37/84/18 38/90/18
f 32/2/17 17/6/17 49/80/17 64/86/17
f 19/26/17 20/25/17 52/92/17 51/88/17
f 7/42/18 6/35/18 38/90/18 39/94/18
f 20/25/17 21/36/17 53/64/17 52/92/17
f 8/32/18 7/42/18 39/94/18 40/63/18
f 72/97/1 71/95/1 87/98/1 88/99/1
f 79/68/35 78/100/35 94/74/35 95/79/35
f 71/95/36 70/91/36 86/101/36 87/98/36
f 78/100/12 77/102/12 93/65/12 94/74/12
f 70/91/13 69/85/13 85/96/13 86/101/13
f 77/102/37 76/103/37 92/66/37 93/65/37
f 69/85/38 68/77/38 84/93/38 85/96/38
f 76/103/8 75/104/8 91/105/8 92/66/8
f 68/77/9 67/72/9 83/89/9 84/93/9
f 75/104/39 74/106/39 90/107/39 91/105/39
f 67/72/40 65/71/40 82/82/40 83/89/40
f 74/106/3 73/108/3 89/109/3 90/107/3
f 66/75/41 80/69/41 96/87/41 81/83/41
f 65/71/5 66/75/5 81/83/5 82/82/5
f 73/108/42 72/97/42 88/99/42 89/109/42
f 80/69/16 79/68/16 95/79/16 96/87/16
f 33/49/43 34/48/43 66/75/43 65/71/43
f 47/51/44 46/50/44 78/100/44 79/68/44
f 59/52/45 60/47/45 92/66/45 91/105/45
f 46/50/46 45/53/46 77/102/46 78/100/46
f 58/54/47 59/52/47 91/105/47 90/107/47
f 45/53/48 44/55/48 76/103/48 77/102/48
f 57/56/49 58/54/49 90/107/49 89/109/49
f 44/55/50 43/57/50 75/104/50 76/103/50
f 56/58/51 57/56/51 89/109/51 88/99/51
f 43/57/52 42/59/52 74/106/52 75/104/52
f 55/60/53 56/58/53 88/99/53 87/98/53
f 42/59/54 41/61/54 73/108/54 74/106/54
f 54/62/55 55/60/55 87/98/55 86/101/55
f 41/61/56 40/63/56 72/97/56 73/108/56
f 53/64/57 54/62/57 86/101/57 85/96/57
f 40/63/58 39/94/58 71/95/58 72/97/58
f 103/19/41 119/18/41 120/34/41 104/33/41
f 111/8/42 127/7/42 128/45/42 112/44/42
f 97/110/39 113/111/39 114/112/39 98/113/39
f 105/13/40 121/114/40 122/115/40 106/14/40
f 99/116/37 115/117/37 116/118/37 100/119/37
f 107/120/38 123/121/38 124/122/38 108/123/38
f 101/43/35 117/23/35 118/22/35 102/124/35
f 109/125/36 125/126/36 126/127/36 110/128/36
f 25/16/59 24/31/59 120/34/59 119/18/59
f 18/10/60 2/9/60 98/113/60 114/112/60
f 12/28/61 13/41/61 107/120/61 108/123/61
f 26/15/62 10/11/62 106/14/62 122/115/62
f 27/30/63 26/15/63 122/115/63 121/114/63
f 3/27/64 19/26/64 113/111/64 97/110/64
f 14/38/65 15/4/65 109/125/65 110/128/65
f 11/12/66 27/30/66 121/114/66 105/13/66
f 29/40/67 28/29/67 124/122/67 123/121/67
f 20/25/68 4/24/68 100/119/68 116/118/68
f 2/9/69 3/27/69 97/110/69 98/113/69
f 16/1/70 1/5/70 111/8/70 112/44/70
f 28/29/71 12/28/71 108/123/71 124/122/71
f 31/3/72 30/39/72 126/127/72 125/126/72
f 5/37/73 21/36/73 115/117/73 99/116/73
f 4/24/74 5/37/74 99/116/74 100/119/74
f 19/26/75 18/10/75 114/112/75 113/111/75
f 13/41/76 29/40/76 123/121/76 107/120/76
f 17/6/77 32/2/77 128/45/77 127/7/77
f 22/21/78 6/35/78 102/124/78 118/22/78
f 6/35/79 7/42/79 101/43/79 102/124/79
f 15/4/80 31/3/80 125/126/80 109/125/80
f 21/36/81 20/25/81 116/118/81 115/117/81
f 30/39/82 14/38/82 110/128/82 126/127/82
